<?xml version="1.0" encoding="UTF-8"?>
<svg version="1.1" xmlns="http://www.w3.org/2000/svg" width="256" height="219">
<path d="M0 0 C2.5 1.625 2.5 1.625 4 4 C4.52224493 7.58110811 4.44280469 9.29889257 2.5 12.375 C1.7575 13.179375 1.7575 13.179375 1 14 C3.99291552 14.33163118 3.99291552 14.33163118 5.6484375 12.5390625 C6.21820313 11.90742187 6.78796875 11.27578125 7.375 10.625 C10.07440749 7.82351407 12.07979181 5.82530699 16 5 C18.75189323 5.1965638 20.36552605 5.4862229 22.51953125 7.23046875 C27.2788253 12.9190181 28.60155703 21.89124824 30 29 C30.42410156 28.61328125 30.84820312 28.2265625 31.28515625 27.828125 C38.59471717 21.3378775 44.82604757 17.55297893 54.7578125 17.66015625 C61.30175696 18.34608778 66.73927713 21.29468929 71.25 26.0625 C80.29184284 37.89629997 83.58208697 51.5950774 83.4375 66.25 C83.42614014 67.88134888 83.42614014 67.88134888 83.41455078 69.5456543 C82.90759365 94.51051768 70.94294855 112.72036647 53.56640625 129.63671875 C51 132 51 132 48 134 C48.598125 134.515625 49.19625 135.03125 49.8125 135.5625 C52.44003511 138.49032484 53.53331911 141.36518214 55 145 C55.556875 145.825 56.11375 146.65 56.6875 147.5 C58.55535765 151.05782409 58.6743139 153.02154802 58 157 C52.24378105 166.68594534 41.92081475 170.08372338 31.63671875 173.08984375 C24.83339941 174.79250047 17.93822736 175.99282468 11 177 C9.07220703 177.28230469 9.07220703 177.28230469 7.10546875 177.5703125 C0.26679638 178.29175647 -6.62920914 178.18599178 -13.49829102 178.18530273 C-15.90073992 178.18746689 -18.30271144 178.2056076 -20.70507812 178.22460938 C-35.34261552 178.2791388 -49.83832204 177.14344083 -64.125 173.8125 C-65.5011145 173.49321533 -65.5011145 173.49321533 -66.9050293 173.16748047 C-79.67326003 170.03688874 -94.20085655 165.25938612 -102.0625 154.0625 C-103.2453861 150.19840541 -103.0621026 147.03666879 -103 143 C-104.84464844 142.63648438 -104.84464844 142.63648438 -106.7265625 142.265625 C-108.35951768 141.9277722 -109.99232246 141.58919192 -111.625 141.25 C-112.43324219 141.09273437 -113.24148437 140.93546875 -114.07421875 140.7734375 C-120.29235203 139.45903534 -124.44099063 137.55900937 -129 133 C-129.38080215 129.49662019 -129.40245078 127.63721374 -127.5 124.625 C-127.005 124.08875 -126.51 123.5525 -126 123 C-126.495 121.989375 -126.99 120.97875 -127.5 119.9375 C-129.37887502 115.46056335 -130.00274941 111.54688935 -128.16796875 106.88671875 C-126.63905289 103.75444544 -124.93531597 100.90297396 -123 98 C-123.99 97.67 -124.98 97.34 -126 97 C-128 94 -128 94 -127.6875 90.375 C-127 87 -127 87 -126 86 C-124.33382885 85.95936168 -122.66611905 85.957279 -121 86 C-120.34 84.35 -119.68 82.7 -119 81 C-116.25 80.625 -116.25 80.625 -113 81 C-109.90260432 84.58645816 -109 86.21087115 -109 91 C-107.94232422 90.75443359 -107.94232422 90.75443359 -106.86328125 90.50390625 C-103.90341312 89.98300176 -101.18938727 89.90133268 -98.1875 89.9375 C-96.72376953 89.95103516 -96.72376953 89.95103516 -95.23046875 89.96484375 C-94.49441406 89.97644531 -93.75835937 89.98804687 -93 90 C-92.96261719 88.84628906 -92.92523438 87.69257812 -92.88671875 86.50390625 C-92.21144265 68.69628183 -90.65259167 50.93910681 -86.5625 33.5625 C-86.36946289 32.74144775 -86.17642578 31.92039551 -85.97753906 31.07446289 C-82.04495509 15.41950686 -82.04495509 15.41950686 -78.08422852 12.67016602 C-75.19115215 11.73992183 -73.19890547 12.48266239 -70.4609375 13.6328125 C-63.77449295 17.34750392 -57.72243487 22.53165905 -52.0703125 27.65625 C-46.06345123 33.12750662 -46.06345123 33.12750662 -38.3125 34.5625 C-36.86973187 34.42114014 -35.42780445 34.25087237 -34 34 C-34.103125 33.05125 -34.20625 32.1025 -34.3125 31.125 C-34.26877133 25.73544193 -32.06467142 21.34340379 -29 17 C-23.55884059 11.7798548 -18.41354913 10.23535077 -11 10 C-11.37125 8.63875 -11.37125 8.63875 -11.75 7.25 C-12 4 -12 4 -10.5625 1.625 C-7.01156739 -0.62681092 -4.09791179 -0.8229413 0 0 Z M31 43 C31.66 51.58 32.32 60.16 33 69 C35.64 68.34 38.28 67.68 41 67 C41.33 67.99 41.66 68.98 42 70 C42.99 69.67 43.98 69.34 45 69 C44 72 44 72 41 75 C43.97 75.33 46.94 75.66 50 76 C50.45375 75.21625 50.9075 74.4325 51.375 73.625 C53 71 53 71 55 69 C55.28127623 66.66293861 55.28127623 66.66293861 55.1875 64.0625 C55.18105469 63.18722656 55.17460937 62.31195313 55.16796875 61.41015625 C55.09069243 58.8562325 55.09069243 58.8562325 54 56 C51.02496878 54.84164327 51.02496878 54.84164327 48 54 C47 53 47 53 46.9375 50.6875 C46.958125 49.800625 46.97875 48.91375 47 48 C47 46.68 47 45.36 47 44 C40.53866755 40.39367491 37.90350591 40.23859764 31 43 Z " fill="#E5AA56" transform="translate(152,22)"/>
<path d="M0 0 C2.75 -0.375 2.75 -0.375 6 0 C9.09739568 3.58645816 10 5.21087115 10 10 C10.70640625 9.83757812 11.4128125 9.67515625 12.140625 9.5078125 C15.07105895 8.98738024 17.77647133 8.86696344 20.75 8.875 C22.19632813 8.87113281 22.19632813 8.87113281 23.671875 8.8671875 C26 9 26 9 27 10 C27.07636665 12.9947181 27.09066383 15.96665041 27.0625 18.9609375 C27.05871338 19.86244537 27.05492676 20.76395325 27.05102539 21.69277954 C27.0346122 25.56574937 27.00653943 29.4386156 26.97949219 33.31152344 C26.96144166 36.13215653 26.9493226 38.95277255 26.9375 41.7734375 C26.92920166 42.65164154 26.92090332 43.52984558 26.91235352 44.43466187 C26.90905029 45.25205841 26.90574707 46.06945496 26.90234375 46.91162109 C26.89710693 47.63030365 26.89187012 48.34898621 26.88647461 49.08944702 C26.93038945 51.22350052 26.93038945 51.22350052 28 54 C30.51746793 54.85701036 32.84486651 55.46997271 35.4375 56 C36.24550049 56.16661133 37.05350098 56.33322266 37.88598633 56.50488281 C40.58573731 57.03554889 43.28989909 57.52511251 46 58 C46.87205078 58.15533203 47.74410156 58.31066406 48.64257812 58.47070312 C76.84437341 63.20860473 106.73747114 62.10830225 135.1875 60.1875 C136.24050293 60.11764893 137.29350586 60.04779785 138.37841797 59.97583008 C147.03139437 59.26267268 155.98140296 58.3783763 163 53 C165.7381615 53.13356885 167.3713205 53.56476035 169.625 55.125 C171.62789873 57.85622554 172.70830866 60.8784126 174 64 C174.556875 64.825 175.11375 65.65 175.6875 66.5 C177.55535765 70.05782409 177.6743139 72.02154802 177 76 C171.24378105 85.68594534 160.92081475 89.08372338 150.63671875 92.08984375 C143.83339941 93.79250047 136.93822736 94.99282468 130 96 C128.07220703 96.28230469 128.07220703 96.28230469 126.10546875 96.5703125 C119.26679638 97.29175647 112.37079086 97.18599178 105.50170898 97.18530273 C103.09926008 97.18746689 100.69728856 97.2056076 98.29492188 97.22460938 C83.65738448 97.2791388 69.16167796 96.14344083 54.875 92.8125 C53.4988855 92.49321533 53.4988855 92.49321533 52.0949707 92.16748047 C39.32673997 89.03688874 24.79914345 84.25938612 16.9375 73.0625 C15.7546139 69.19840541 15.9378974 66.03666879 16 62 C14.77023438 61.75765625 13.54046875 61.5153125 12.2734375 61.265625 C10.64048232 60.9277722 9.00767754 60.58919192 7.375 60.25 C6.16263672 60.01410156 6.16263672 60.01410156 4.92578125 59.7734375 C-1.29235203 58.45903534 -5.44099063 56.55900937 -10 52 C-10.38080215 48.49662019 -10.40245078 46.63721374 -8.5 43.625 C-8.005 43.08875 -7.51 42.5525 -7 42 C-7.495 40.989375 -7.99 39.97875 -8.5 38.9375 C-10.37887502 34.46056335 -11.00274941 30.54688935 -9.16796875 25.88671875 C-7.63905289 22.75444544 -5.93531597 19.90297396 -4 17 C-4.99 16.67 -5.98 16.34 -7 16 C-9 13 -9 13 -8.6875 9.375 C-8 6 -8 6 -7 5 C-5.33382885 4.95936168 -3.66611905 4.957279 -2 5 C-1.34 3.35 -0.68 1.7 0 0 Z " fill="#F4F0DE" transform="translate(33,103)"/>
<path d="M0 0 C2.75 -0.375 2.75 -0.375 6 0 C9.09739568 3.58645816 10 5.21087115 10 10 C10.70640625 9.83757812 11.4128125 9.67515625 12.140625 9.5078125 C15.07105895 8.98738024 17.77647133 8.86696344 20.75 8.875 C22.19632813 8.87113281 22.19632813 8.87113281 23.671875 8.8671875 C26 9 26 9 27 10 C27.0927833 11.38160115 27.11747043 12.76788038 27.11352539 14.15258789 C27.11344986 15.03342545 27.11337433 15.914263 27.11329651 16.8217926 C27.10813522 17.77907761 27.10297394 18.73636261 27.09765625 19.72265625 C27.0962413 20.69786728 27.09482635 21.67307831 27.09336853 22.67784119 C27.08775133 25.80609143 27.07519593 28.93427123 27.0625 32.0625 C27.05748722 34.17773334 27.05292393 36.29296781 27.04882812 38.40820312 C27.03777631 43.60549296 27.02102146 48.80274145 27 54 C24.77488059 54.0390438 22.54956136 54.06679878 20.32421875 54.08984375 C19.08502686 54.106521 17.84583496 54.12319824 16.5690918 54.14038086 C6.7508937 53.7542078 -1.42780147 48.05142134 -8 41 C-10.1063292 35.97034118 -11.22779161 31.13897666 -9.171875 25.8828125 C-7.63679105 22.75536535 -5.93447592 19.90171388 -4 17 C-4.99 16.67 -5.98 16.34 -7 16 C-9 13 -9 13 -8.6875 9.375 C-8 6 -8 6 -7 5 C-5.33382885 4.95936168 -3.66611905 4.957279 -2 5 C-1.34 3.35 -0.68 1.7 0 0 Z " fill="#C1D1DD" transform="translate(33,103)"/>
<path d="M0 0 C2.5 1.625 2.5 1.625 4 4 C4.4375 7 4.4375 7 4 10 C3.2265625 11.0209375 3.2265625 11.0209375 2.4375 12.0625 C1.963125 12.701875 1.48875 13.34125 1 14 C1.21140625 14.77085938 1.4228125 15.54171875 1.640625 16.3359375 C2 19 2 19 0.48828125 21.31640625 C-0.22972656 22.05761719 -0.94773438 22.79882812 -1.6875 23.5625 C-2.74517578 24.67818359 -2.74517578 24.67818359 -3.82421875 25.81640625 C-8.228 30.236 -8.228 30.236 -10 32 C-10.66 30.68 -11.32 29.36 -12 28 C-12.66 28 -13.32 28 -14 28 C-14.66 29.32 -15.32 30.64 -16 32 C-16.33 31.01 -16.66 30.02 -17 29 C-17.99 28.67 -18.98 28.34 -20 28 C-19.88693303 29.95894361 -19.88693303 29.95894361 -19 32 C-16.50965614 33.29660434 -16.50965614 33.29660434 -14 34 C-14 34.33 -14 34.66 -14 35 C-17.14581423 35.02888514 -20.29159469 35.04675923 -23.4375 35.0625 C-24.33533203 35.07087891 -25.23316406 35.07925781 -26.15820312 35.08789062 C-27.43920898 35.09272461 -27.43920898 35.09272461 -28.74609375 35.09765625 C-29.53685303 35.10289307 -30.3276123 35.10812988 -31.14233398 35.11352539 C-33 35 -33 35 -34 34 C-34.83949278 27.42397326 -32.79422671 22.3773656 -29 17 C-23.55884059 11.7798548 -18.41354913 10.23535077 -11 10 C-11.2475 9.0925 -11.495 8.185 -11.75 7.25 C-12 4 -12 4 -10.5625 1.625 C-7.01156739 -0.62681092 -4.09791179 -0.8229413 0 0 Z " fill="#C2D1DD" transform="translate(152,22)"/>
<path d="M0 0 C0.66 0.66 1.32 1.32 2 2 C2.66 2 3.32 2 4 2 C3.625 3.9375 3.625 3.9375 3 6 C2.01 6.495 2.01 6.495 1 7 C1.55429688 7.15855469 2.10859375 7.31710938 2.6796875 7.48046875 C8.60903812 9.39009947 8.60903812 9.39009947 10.5625 12.4375 C11.15076987 15.88308066 10.61493666 17.96203645 8.8359375 20.96484375 C5.35609772 25.66355789 2.12572942 29.11095251 -3 32 C-7.18181818 31.81818182 -7.18181818 31.81818182 -9 30 C-9.09899441 28.60567314 -9.13079563 27.20642894 -9.1328125 25.80859375 C-9.13410156 24.94556641 -9.13539063 24.08253906 -9.13671875 23.19335938 C-9.13285156 22.28392578 -9.12898437 21.37449219 -9.125 20.4375 C-9.12886719 19.55513672 -9.13273438 18.67277344 -9.13671875 17.76367188 C-9.12882661 12.42464145 -8.92627149 7.26480764 -8 2 C-5.21027418 -0.30873861 -3.73200169 0 0 0 Z " fill="#C0CED9" transform="translate(193,89)"/>
<path d="M0 0 C1.97265625 0.265625 1.97265625 0.265625 4.97265625 2.265625 C5.47265625 4.578125 5.47265625 4.578125 4.97265625 7.265625 C2.40424037 10.33345508 -0.14738625 13.05313828 -4.02734375 14.265625 C-6.77734375 13.890625 -6.77734375 13.890625 -9.02734375 13.265625 C-10.21484375 10.578125 -10.21484375 10.578125 -11.02734375 7.265625 C-8.40631654 1.49936514 -6.31650078 0.04722617 0 0 Z " fill="#B4925B" transform="translate(212.02734375,90.734375)"/>
<path d="M0 0 C0.66 0.66 1.32 1.32 2 2 C1.82955302 5.23849267 1.24726748 6.71152128 -0.875 9.1875 C-5.23232323 12.9040404 -5.23232323 12.9040404 -8.5 13.3125 C-11 13 -11 13 -12.8125 11.8125 C-14 10 -14 10 -14.625 7.625 C-13.76788922 4.02513471 -12.05565528 2.91021012 -9.015625 0.9453125 C-5.90253261 -0.5147037 -3.35887381 -0.4610219 0 0 Z " fill="#B4925A" transform="translate(212,65)"/>
<path d="M0 0 C0.99 0.33 1.98 0.66 3 1 C4.1875 3.5625 4.1875 3.5625 5 6 C4.34 6.66 3.68 7.32 3 8 C-0.80909895 7.67582137 -2.78372163 7.14418558 -6 5 C-6 3.68 -6 2.36 -6 1 C-5.38125 1.20625 -4.7625 1.4125 -4.125 1.625 C-3.073125 1.810625 -3.073125 1.810625 -2 2 C-1.34 1.34 -0.68 0.68 0 0 Z " fill="#70787E" transform="translate(138,49)"/>
<path d="M0 0 C1.65 0.33 3.3 0.66 5 1 C5 2.65 5 4.3 5 6 C2.03 5.505 2.03 5.505 -1 5 C-0.67 3.35 -0.34 1.7 0 0 Z " fill="#3D4247" transform="translate(186,106)"/>
<path d="M0 0 C0.99 0.33 1.98 0.66 3 1 C3.33 2.98 3.66 4.96 4 7 C2.68 6.67 1.36 6.34 0 6 C-0.38218767 4.34385343 -0.71395102 2.67542976 -1 1 C-0.67 0.67 -0.34 0.34 0 0 Z " fill="#1E2022" transform="translate(48,120)"/>
<path d="M0 0 C1.32 0.33 2.64 0.66 4 1 C4.33 2.65 4.66 4.3 5 6 C3.68 5.67 2.36 5.34 1 5 C0.67 3.35 0.34 1.7 0 0 Z " fill="#1E2123" transform="translate(53,118)"/>
</svg>
